P3
# Created by GIMP version 2.10.12 PNM plug-in
8 8
255
0
0
0
255
255
255
255
255
255
255
255
255
128
128
0
0
128
0
255
255
255
0
0
0
255
255
255
0
255
0
0
255
0
0
255
0
128
128
0
0
128
0
0
128
0
255
255
255
0
255
0
255
255
255
255
255
255
0
255
0
128
128
0
0
255
0
0
255
0
255
255
255
0
255
0
255
255
255
0
255
0
0
255
0
0
255
0
0
255
0
0
255
0
0
128
0
0
255
0
255
255
255
0
255
0
0
255
0
0
255
0
0
255
0
0
255
0
0
128
0
0
255
0
0
255
0
0
255
0
0
255
0
0
255
0
0
255
0
0
128
0
0
128
0
255
255
255
0
255
0
0
255
0
0
255
0
0
128
0
0
128
0
0
128
0
255
255
255
0
0
0
255
255
255
0
128
0
0
128
0
0
128
0
0
128
0
255
255
255
0
0
0
